<svg width="800" height="800" viewBox="0 0 400 400" fill="none" xmlns="http://www.w3.org/2000/svg"><path d="M97.836 54.668c79.363 4.863 115.202-1.679 140.207-1.679 23.255 0 34.197 76.476 24.64 99.059-9.011 21.293-162.352 22.148-169.491 13.715-8.256-9.755-3.482-50.488-3.482-64.462m8.622 89.393c-108.992 100.791 22.918 82.804 49.901 104.389" stroke="#147efb" stroke-opacity=".9" stroke-width="16" stroke-linecap="round" stroke-linejoin="round"/><path d="M98.33 190.694c1.462 23.008 2.834 75.003 1.933 82.204m108.045-136.659v-12.843m-31.009 13.875c-.264-3.388.001-11.15.001-13.875m26.098 118.324c148.699-1.799 171.483-14.99 109.126 100.131m-26.974 3.597c-88.74-3.598-148.699 28.781-107.327-80.944" stroke="#147efb" stroke-opacity=".9" stroke-width="16" stroke-linecap="round" stroke-linejoin="round"/><path d="M180.018 345.448c-19.248-14.063-40.716-25.235-59.36-40.773m97.737-114.519c.629 15.406 1.199 30.742 1.199 46.168m-1.199-46.168c7.501 11.881 14.575 19.614 23.382 40.171M80.117 119.041c-4.517 1.181-9.068.949-13.676 1.369m-6.847-10.941c.06 8.287-.002 16.446-.684 24.617m218.831-18.464c3.414-.354 6.848-.799 10.256-1.367m3.415-9.573c.97 5.427.683 10.93.683 16.411m-66.327-4.627c-22.406-2.473-44.111-1.291-65.644 2.102" stroke="#147efb" stroke-opacity=".9" stroke-width="16" stroke-linecap="round" stroke-linejoin="round"/></svg>